<?xml version="1.0" encoding="UTF-8"?>
<svg width="36px" height="36px" viewBox="0 0 36 36" version="1.1" xmlns="http://www.w3.org/2000/svg" xmlns:xlink="http://www.w3.org/1999/xlink">
    <!-- Generator: Sketch 44.1 (41455) - http://www.bohemiancoding.com/sketch -->
    <title>Artboard</title>
    <desc>Created with Sketch.</desc>
    <defs></defs>
    <g id="Page-1" stroke="none" stroke-width="1" fill="none" fill-rule="evenodd" stroke-linecap="square">
        <g id="Artboard">
            <g id="bg" transform="translate(17.951533, 17.951533) rotate(-315.000000) translate(-17.951533, -17.951533) translate(-12.548467, -8.048467)" stroke="#979797" stroke-width="4">
                <path d="M0.941281671,2 L59.3649149,2" id="Line"></path>
                <path d="M0.941281671,4 L59.3649149,4" id="Line"></path>
                <path d="M0.941281671,7 L59.3649149,7" id="Line-Copy"></path>
                <path d="M0.941281671,10 L59.3649149,10" id="Line-Copy-2"></path>
                <path d="M0.941281671,13 L59.3649149,13" id="Line"></path>
                <path d="M0.941281671,16 L59.3649149,16" id="Line"></path>
                <path d="M0.941281671,19 L59.3649149,19" id="Line-Copy"></path>
                <path d="M0.941281671,21 L59.3649149,21" id="Line-Copy-2"></path>
                <path d="M0.941281671,24 L59.3649149,24" id="Line"></path>
                <path d="M0.941281671,27 L59.3649149,27" id="Line"></path>
                <path d="M0.941281671,30 L59.3649149,30" id="Line-Copy"></path>
                <path d="M0.941281671,33 L59.3649149,33" id="Line-Copy-2"></path>
                <path d="M0.941281671,36 L59.3649149,36" id="Line-Copy"></path>
                <path d="M0.941281671,38 L59.3649149,38" id="Line-Copy-2"></path>
                <path d="M0.941281671,41 L59.3649149,41" id="Line"></path>
                <path d="M0.941281671,44 L59.3649149,44" id="Line"></path>
                <path d="M0.941281671,47 L59.3649149,47" id="Line-Copy"></path>
                <path d="M0.941281671,50 L59.3649149,50" id="Line-Copy-2"></path>
            </g>
            <g id="x" transform="translate(10.000000, 10.000000)" stroke="#4A4A4A" stroke-width="7">
                <path d="M0,0 L16,16" id="Line"></path>
                <path d="M16,0 L0,16" id="Line"></path>
            </g>
        </g>
    </g>
</svg>